<svg width="28" height="25" viewBox="0 0 28 25" fill="none" xmlns="http://www.w3.org/2000/svg">
<path id="Vector" d="M5.90537 24.1011C4.42037 24.1011 3.14912 23.5789 2.09162 22.5344C1.03412 21.49 0.505371 20.2344 0.505371 18.7677C0.505371 17.3011 1.03412 16.0455 2.09162 15.0011C3.14912 13.9566 4.42037 13.4344 5.90537 13.4344C7.39037 13.4344 8.66162 13.9566 9.71912 15.0011C10.7766 16.0455 11.3054 17.3011 11.3054 18.7677C11.3054 20.2344 10.7766 21.49 9.71912 22.5344C8.66162 23.5789 7.39037 24.1011 5.90537 24.1011ZM22.1054 24.1011C20.6204 24.1011 19.3491 23.5789 18.2916 22.5344C17.2341 21.49 16.7054 20.2344 16.7054 18.7677C16.7054 17.3011 17.2341 16.0455 18.2916 15.0011C19.3491 13.9566 20.6204 13.4344 22.1054 13.4344C23.5904 13.4344 24.8616 13.9566 25.9191 15.0011C26.9766 16.0455 27.5054 17.3011 27.5054 18.7677C27.5054 20.2344 26.9766 21.49 25.9191 22.5344C24.8616 23.5789 23.5904 24.1011 22.1054 24.1011ZM5.90537 21.4344C6.64787 21.4344 7.2835 21.1733 7.81225 20.6511C8.341 20.1289 8.60537 19.5011 8.60537 18.7677C8.60537 18.0344 8.341 17.4066 7.81225 16.8844C7.2835 16.3622 6.64787 16.1011 5.90537 16.1011C5.16287 16.1011 4.52725 16.3622 3.9985 16.8844C3.46975 17.4066 3.20537 18.0344 3.20537 18.7677C3.20537 19.5011 3.46975 20.1289 3.9985 20.6511C4.52725 21.1733 5.16287 21.4344 5.90537 21.4344ZM22.1054 21.4344C22.8479 21.4344 23.4835 21.1733 24.0122 20.6511C24.541 20.1289 24.8054 19.5011 24.8054 18.7677C24.8054 18.0344 24.541 17.4066 24.0122 16.8844C23.4835 16.3622 22.8479 16.1011 22.1054 16.1011C21.3629 16.1011 20.7272 16.3622 20.1985 16.8844C19.6697 17.4066 19.4054 18.0344 19.4054 18.7677C19.4054 19.5011 19.6697 20.1289 20.1985 20.6511C20.7272 21.1733 21.3629 21.4344 22.1054 21.4344ZM14.0054 10.7677C12.5204 10.7677 11.2491 10.2455 10.1916 9.20107C9.13412 8.15663 8.60537 6.90107 8.60537 5.43441C8.60537 3.96774 9.13412 2.71219 10.1916 1.66774C11.2491 0.623296 12.5204 0.101074 14.0054 0.101074C15.4904 0.101074 16.7616 0.623296 17.8191 1.66774C18.8766 2.71219 19.4054 3.96774 19.4054 5.43441C19.4054 6.90107 18.8766 8.15663 17.8191 9.20107C16.7616 10.2455 15.4904 10.7677 14.0054 10.7677ZM14.0054 8.10107C14.7479 8.10107 15.3835 7.83996 15.9122 7.31774C16.441 6.79552 16.7054 6.16774 16.7054 5.43441C16.7054 4.70107 16.441 4.0733 15.9122 3.55107C15.3835 3.02885 14.7479 2.76774 14.0054 2.76774C13.2629 2.76774 12.6272 3.02885 12.0985 3.55107C11.5697 4.0733 11.3054 4.70107 11.3054 5.43441C11.3054 6.16774 11.5697 6.79552 12.0985 7.31774C12.6272 7.83996 13.2629 8.10107 14.0054 8.10107Z" fill="url(#paint0_linear_26_726)"/>
<defs>
<linearGradient id="paint0_linear_26_726" x1="0.505371" y1="12.1011" x2="27.5054" y2="12.1011" gradientUnits="userSpaceOnUse">
<stop stop-color="#60C6F2"/>
<stop offset="1" stop-color="#153D8B"/>
</linearGradient>
</defs>
</svg>
