<svg width="25" height="25" viewBox="0 0 25 25" fill="none" xmlns="http://www.w3.org/2000/svg">
<path id="Vector" d="M15.3841 16.1356C15.7241 16.1356 16.0191 16.0106 16.2691 15.7606C16.5191 15.5106 16.6441 15.2156 16.6441 14.8756C16.6441 14.5356 16.5191 14.2406 16.2691 13.9906C16.0191 13.7406 15.7241 13.6156 15.3841 13.6156C15.0441 13.6156 14.7491 13.7406 14.4991 13.9906C14.2491 14.2406 14.1241 14.5356 14.1241 14.8756C14.1241 15.2156 14.2491 15.5106 14.4991 15.7606C14.7491 16.0106 15.0441 16.1356 15.3841 16.1356ZM14.4841 12.2956H16.2841C16.2841 11.7156 16.3441 11.2906 16.4641 11.0206C16.5841 10.7506 16.8641 10.3956 17.3041 9.95564C17.9041 9.35564 18.3041 8.87064 18.5041 8.50064C18.7041 8.13064 18.8041 7.69564 18.8041 7.19564C18.8041 6.29564 18.4891 5.56064 17.8591 4.99064C17.2291 4.42064 16.4041 4.13564 15.3841 4.13564C14.5641 4.13564 13.8491 4.36564 13.2391 4.82564C12.6291 5.28564 12.2041 5.89564 11.9641 6.65564L13.5841 7.31564C13.7641 6.81564 14.0091 6.44064 14.3191 6.19064C14.6291 5.94064 14.9841 5.81564 15.3841 5.81564C15.8641 5.81564 16.2541 5.95064 16.5541 6.22064C16.8541 6.49064 17.0041 6.85564 17.0041 7.31564C17.0041 7.59564 16.9241 7.86064 16.7641 8.11064C16.6041 8.36064 16.3241 8.67564 15.9241 9.05564C15.2641 9.63564 14.8591 10.0906 14.7091 10.4206C14.5591 10.7506 14.4841 11.3756 14.4841 12.2956ZM8.18413 19.7356C7.52413 19.7356 6.95913 19.5006 6.48913 19.0306C6.01913 18.5606 5.78413 17.9956 5.78413 17.3356V2.93564C5.78413 2.27564 6.01913 1.71064 6.48913 1.24064C6.95913 0.770645 7.52413 0.535645 8.18413 0.535645H22.5841C23.2441 0.535645 23.8091 0.770645 24.2791 1.24064C24.7491 1.71064 24.9841 2.27564 24.9841 2.93564V17.3356C24.9841 17.9956 24.7491 18.5606 24.2791 19.0306C23.8091 19.5006 23.2441 19.7356 22.5841 19.7356H8.18413ZM8.18413 17.3356H22.5841V2.93564H8.18413V17.3356ZM3.38413 24.5356C2.72413 24.5356 2.15913 24.3006 1.68913 23.8306C1.21913 23.3606 0.984131 22.7956 0.984131 22.1356V5.33564H3.38413V22.1356H20.1841V24.5356H3.38413Z" fill="url(#paint0_linear_26_737)"/>
<defs>
<linearGradient id="paint0_linear_26_737" x1="0.984131" y1="12.5356" x2="24.9841" y2="12.5356" gradientUnits="userSpaceOnUse">
<stop stop-color="#60C6F2"/>
<stop offset="1" stop-color="#153D8B"/>
</linearGradient>
</defs>
</svg>
