<svg width="24" height="25" viewBox="0 0 24 25" fill="none" xmlns="http://www.w3.org/2000/svg">
<path id="Vector" d="M11.2854 21.0665L16.5054 10.8665H12.9054V4.2665L7.50537 14.4665H11.2854V21.0665ZM12.0054 24.6665C10.3454 24.6665 8.78537 24.3515 7.32537 23.7215C5.86537 23.0915 4.59537 22.2365 3.51537 21.1565C2.43537 20.0765 1.58037 18.8065 0.950371 17.3465C0.320371 15.8865 0.00537109 14.3265 0.00537109 12.6665C0.00537109 11.0065 0.320371 9.4465 0.950371 7.9865C1.58037 6.5265 2.43537 5.2565 3.51537 4.1765C4.59537 3.0965 5.86537 2.2415 7.32537 1.6115C8.78537 0.981504 10.3454 0.666504 12.0054 0.666504C13.6654 0.666504 15.2254 0.981504 16.6854 1.6115C18.1454 2.2415 19.4154 3.0965 20.4954 4.1765C21.5754 5.2565 22.4304 6.5265 23.0604 7.9865C23.6904 9.4465 24.0054 11.0065 24.0054 12.6665C24.0054 14.3265 23.6904 15.8865 23.0604 17.3465C22.4304 18.8065 21.5754 20.0765 20.4954 21.1565C19.4154 22.2365 18.1454 23.0915 16.6854 23.7215C15.2254 24.3515 13.6654 24.6665 12.0054 24.6665ZM12.0054 22.2665C14.6854 22.2665 16.9554 21.3365 18.8154 19.4765C20.6754 17.6165 21.6054 15.3465 21.6054 12.6665C21.6054 9.9865 20.6754 7.7165 18.8154 5.8565C16.9554 3.9965 14.6854 3.0665 12.0054 3.0665C9.32537 3.0665 7.05537 3.9965 5.19537 5.8565C3.33537 7.7165 2.40537 9.9865 2.40537 12.6665C2.40537 15.3465 3.33537 17.6165 5.19537 19.4765C7.05537 21.3365 9.32537 22.2665 12.0054 22.2665Z" fill="url(#paint0_linear_26_705)"/>
<defs>
<linearGradient id="paint0_linear_26_705" x1="0.00537109" y1="12.6665" x2="24.0054" y2="12.6665" gradientUnits="userSpaceOnUse">
<stop stop-color="#60C6F2"/>
<stop offset="1" stop-color="#153D8B"/>
</linearGradient>
</defs>
</svg>
