<svg width="24" height="25" viewBox="0 0 24 25" fill="none" xmlns="http://www.w3.org/2000/svg">
<path id="Vector" d="M21.2417 24.0356L14.1486 16.7458L16.8692 13.9497L23.9624 21.2395L21.2417 24.0356ZM3.36317 24.0356L0.642524 21.2395L9.58179 12.0523L7.37937 9.78876L6.47248 10.7208L4.82066 9.02316V11.7527L3.91378 12.6847L-0.00524902 8.657L0.901634 7.72496H3.5575L1.93807 6.06061L6.53726 1.33384C6.96911 0.890013 7.43335 0.568238 7.92997 0.368516C8.4266 0.168793 8.93402 0.0689316 9.45224 0.0689316C9.97046 0.0689316 10.4779 0.168793 10.9745 0.368516C11.4711 0.568238 11.9354 0.890013 12.3672 1.33384L9.38746 4.39625L11.0069 6.06061L10.1 6.99265L12.3024 9.25617L15.2174 6.26033C15.1311 6.01623 15.0609 5.76103 15.0069 5.49473C14.9529 5.22843 14.9259 4.96214 14.9259 4.69584C14.9259 3.38655 15.3632 2.28252 16.2377 1.38377C17.1122 0.48502 18.1864 0.0356445 19.4603 0.0356445C19.7842 0.0356445 20.0919 0.0689316 20.3834 0.135506C20.6749 0.20208 20.9718 0.301941 21.2741 0.43509L18.0676 3.73051L20.3996 6.12718L23.6061 2.83176C23.7572 3.14244 23.8598 3.44757 23.9138 3.74716C23.9678 4.04674 23.9948 4.36297 23.9948 4.69584C23.9948 6.00513 23.5575 7.10915 22.683 8.00791C21.8085 8.90666 20.7343 9.35603 19.4603 9.35603C19.2012 9.35603 18.9421 9.33384 18.683 9.28946C18.4239 9.24508 18.1756 9.16741 17.9381 9.05645L3.36317 24.0356Z" fill="url(#paint0_linear_26_742)"/>
<defs>
<linearGradient id="paint0_linear_26_742" x1="-0.00524902" y1="12.0356" x2="23.9948" y2="12.0356" gradientUnits="userSpaceOnUse">
<stop stop-color="#60C6F2"/>
<stop offset="1" stop-color="#153D8B"/>
</linearGradient>
</defs>
</svg>
