<svg width="24" height="25" viewBox="0 0 24 25" fill="none" xmlns="http://www.w3.org/2000/svg">
<path id="Vector" d="M11.9948 24.6011C9.95839 24.6011 8.08566 24.1374 6.37657 23.2102C4.66748 22.2829 3.26748 21.0465 2.17657 19.5011V22.4193H-0.00524902V15.8738H6.54021V18.0556H3.84021C4.71293 19.3647 5.86293 20.4193 7.29021 21.2193C8.71748 22.0193 10.2857 22.4193 11.9948 22.4193C13.3584 22.4193 14.6357 22.1602 15.8266 21.642C17.0175 21.1238 18.0538 20.4238 18.9357 19.542C19.8175 18.6602 20.5175 17.6238 21.0357 16.4329C21.5538 15.242 21.8129 13.9647 21.8129 12.6011H23.9948C23.9948 14.2556 23.6811 15.8102 23.0538 17.2647C22.4266 18.7193 21.5675 19.992 20.4766 21.0829C19.3857 22.1738 18.1129 23.0329 16.6584 23.6602C15.2038 24.2874 13.6493 24.6011 11.9948 24.6011ZM11.0129 20.2374V18.8193C10.1584 18.6193 9.46293 18.2511 8.92657 17.7147C8.39021 17.1783 7.99475 16.4738 7.74021 15.6011L9.54021 14.892C9.75839 15.6374 10.0993 16.1965 10.5629 16.5693C11.0266 16.942 11.5584 17.1283 12.1584 17.1283C12.7584 17.1283 13.272 16.9874 13.6993 16.7056C14.1266 16.4238 14.3402 15.9829 14.3402 15.3829C14.3402 14.8556 14.1175 14.4283 13.672 14.1011C13.2266 13.7738 12.4311 13.4011 11.2857 12.9829C10.2129 12.6011 9.42657 12.1465 8.92657 11.6193C8.42657 11.092 8.17657 10.4011 8.17657 9.54653C8.17657 8.80107 8.43566 8.1238 8.95384 7.51471C9.47202 6.90562 10.1766 6.51017 11.0675 6.32835V4.96471H12.9766V6.32835C13.6311 6.38289 14.2266 6.64653 14.7629 7.11926C15.2993 7.59198 15.6675 8.14653 15.8675 8.78289L14.122 9.49198C13.9766 9.0738 13.7402 8.7238 13.4129 8.44198C13.0857 8.16017 12.6311 8.01926 12.0493 8.01926C11.4129 8.01926 10.9266 8.15562 10.5902 8.42835C10.2538 8.70107 10.0857 9.0738 10.0857 9.54653C10.0857 10.0193 10.2948 10.392 10.7129 10.6647C11.1311 10.9374 11.8857 11.2556 12.9766 11.6193C14.2857 12.092 15.1584 12.6465 15.5948 13.2829C16.0311 13.9193 16.2493 14.6193 16.2493 15.3829C16.2493 15.9102 16.1584 16.3738 15.9766 16.7738C15.7948 17.1738 15.5538 17.5147 15.2538 17.7965C14.9538 18.0783 14.6038 18.3056 14.2038 18.4783C13.8038 18.6511 13.3766 18.7829 12.922 18.8738V20.2374H11.0129ZM-0.00524902 12.6011C-0.00524902 10.9465 0.308387 9.39198 0.93566 7.93744C1.56293 6.48289 2.42202 5.21017 3.51293 4.11926C4.60384 3.02835 5.87657 2.16926 7.33111 1.54198C8.78566 0.914711 10.3402 0.601074 11.9948 0.601074C14.0311 0.601074 15.9038 1.06471 17.6129 1.99198C19.322 2.91926 20.722 4.15562 21.8129 5.70107V2.78289H23.9948V9.32835H17.4493V7.14653H20.1493C19.2766 5.83744 18.1266 4.78289 16.6993 3.98289C15.272 3.18289 13.7038 2.78289 11.9948 2.78289C10.6311 2.78289 9.35384 3.04198 8.16293 3.56017C6.97202 4.07835 5.93566 4.77835 5.05384 5.66017C4.17202 6.54198 3.47202 7.57835 2.95384 8.76926C2.43566 9.96017 2.17657 11.2374 2.17657 12.6011H-0.00524902Z" fill="url(#paint0_linear_26_721)"/>
<defs>
<linearGradient id="paint0_linear_26_721" x1="-0.00524902" y1="12.6011" x2="23.9948" y2="12.6011" gradientUnits="userSpaceOnUse">
<stop stop-color="#60C6F2"/>
<stop offset="1" stop-color="#153D8B"/>
</linearGradient>
</defs>
</svg>
