<svg width="48" height="48" viewBox="0 0 48 48" fill="none" xmlns="http://www.w3.org/2000/svg">
<rect width="48" height="48" rx="24" fill="white" fill-opacity="0.5"/>
<path d="M32.4444 34L25.4444 27C24.8889 27.4444 24.25 27.7963 23.5278 28.0556C22.8056 28.3148 22.037 28.4444 21.2222 28.4444C19.2037 28.4444 17.4954 27.7454 16.0972 26.3472C14.6991 24.9491 14 23.2407 14 21.2222C14 19.2037 14.6991 17.4954 16.0972 16.0972C17.4954 14.6991 19.2037 14 21.2222 14C23.2407 14 24.9491 14.6991 26.3472 16.0972C27.7454 17.4954 28.4444 19.2037 28.4444 21.2222C28.4444 22.037 28.3148 22.8056 28.0556 23.5278C27.7963 24.25 27.4444 24.8889 27 25.4444L34 32.4444L32.4444 34ZM21.2222 26.2222C22.6111 26.2222 23.7917 25.7361 24.7639 24.7639C25.7361 23.7917 26.2222 22.6111 26.2222 21.2222C26.2222 19.8333 25.7361 18.6528 24.7639 17.6806C23.7917 16.7083 22.6111 16.2222 21.2222 16.2222C19.8333 16.2222 18.6528 16.7083 17.6806 17.6806C16.7083 18.6528 16.2222 19.8333 16.2222 21.2222C16.2222 22.6111 16.7083 23.7917 17.6806 24.7639C18.6528 25.7361 19.8333 26.2222 21.2222 26.2222ZM20.1111 24.5556V22.3333H17.8889V20.1111H20.1111V17.8889H22.3333V20.1111H24.5556V22.3333H22.3333V24.5556H20.1111Z" fill="white"/>
</svg>
