<svg width="24" height="25" viewBox="0 0 24 25" fill="none" xmlns="http://www.w3.org/2000/svg">
<path id="Vector" d="M11.9948 24.5833C10.6748 24.5833 9.39975 24.3797 8.16975 23.9726C6.93975 23.5654 5.81475 22.9745 4.79475 22.2L6.53475 20.472C7.37475 21.048 8.25475 21.48 9.17475 21.768C10.0948 22.056 11.0348 22.2 11.9948 22.2C14.6548 22.2 16.9198 21.2714 18.7898 19.4144C20.6597 17.5574 21.5948 15.3081 21.5948 12.6665C21.5948 10.025 20.6597 7.77569 18.7898 5.91866C16.9198 4.06163 14.6548 3.13311 11.9948 3.13311C9.33475 3.13311 7.06975 4.06163 5.19975 5.91866C3.32975 7.77569 2.39475 10.025 2.39475 12.6665H-0.00524902C-0.00524902 11.018 0.309751 9.46887 0.939751 8.01899C1.56975 6.56912 2.42475 5.30792 3.50475 4.23541C4.58475 3.1629 5.85475 2.31383 7.31475 1.6882C8.77475 1.06257 10.3348 0.749756 11.9948 0.749756C13.6548 0.749756 15.2098 1.06257 16.6597 1.6882C18.1098 2.31383 19.3798 3.16787 20.4698 4.25031C21.5597 5.33275 22.4198 6.59394 23.0498 8.03389C23.6798 9.47383 23.9948 11.018 23.9948 12.6665C23.9948 14.2952 23.6798 15.8344 23.0498 17.2843C22.4198 18.7342 21.5597 20.0003 20.4698 21.0828C19.3798 22.1652 18.1098 23.0192 16.6597 23.6449C15.2098 24.2705 13.6548 24.5833 11.9948 24.5833ZM2.36475 19.7272L7.25475 14.8711L10.8548 17.8503L16.7948 11.9515V15.0499H19.1947V7.89982H11.9948V10.2832H15.1148L10.7348 14.6328L7.13475 11.6536L1.10475 17.6418C1.32475 18.0986 1.51975 18.471 1.68975 18.759C1.85975 19.047 2.08475 19.3697 2.36475 19.7272Z" fill="url(#paint0_linear_26_700)"/>
<defs>
<linearGradient id="paint0_linear_26_700" x1="-0.00524902" y1="12.6665" x2="23.9948" y2="12.6665" gradientUnits="userSpaceOnUse">
<stop stop-color="#60C6F2"/>
<stop offset="1" stop-color="#153D8B"/>
</linearGradient>
</defs>
</svg>
