<svg width="28" height="25" viewBox="0 0 28 25" fill="none" xmlns="http://www.w3.org/2000/svg">
<path id="Vector" d="M3.18413 5.99984H24.7841V3.33317H3.18413V5.99984ZM0.484131 3.33317C0.484131 2.59984 0.748506 1.97206 1.27726 1.44984C1.80601 0.927615 2.44163 0.666504 3.18413 0.666504H24.7841C25.5266 0.666504 26.1623 0.927615 26.691 1.44984C27.2198 1.97206 27.4841 2.59984 27.4841 3.33317V11.3332H3.18413V19.3332H8.71913V21.9998H3.18413C2.44163 21.9998 1.80601 21.7387 1.27726 21.2165C0.748506 20.6943 0.484131 20.0665 0.484131 19.3332V3.33317ZM17.9666 24.6665L12.2291 18.9998L14.1191 17.1332L17.9666 20.8665L25.5941 13.3332L27.4841 15.2665L17.9666 24.6665ZM3.18413 3.33317V19.3332V13.3332V17.0998V3.33317Z" fill="url(#paint0_linear_26_694)"/>
<defs>
<linearGradient id="paint0_linear_26_694" x1="0.484131" y1="12.6665" x2="27.4841" y2="12.6665" gradientUnits="userSpaceOnUse">
<stop stop-color="#60C6F2"/>
<stop offset="1" stop-color="#153D8B"/>
</linearGradient>
</defs>
</svg>
