<svg width="23" height="25" viewBox="0 0 23 25" fill="none" xmlns="http://www.w3.org/2000/svg">
<path id="Vector" d="M10.6091 24.6011C7.83621 24.2759 5.53882 23.1322 3.71694 21.1702C1.89507 19.2081 0.984131 16.9046 0.984131 14.2596C0.984131 12.8287 1.28205 11.4574 1.87788 10.1458C2.47371 8.83414 3.32163 7.69051 4.42163 6.7149L6.38101 8.56855C5.51017 9.30568 4.85132 10.1621 4.40444 11.1377C3.95757 12.1133 3.73413 13.1539 3.73413 14.2596C3.73413 16.1675 4.3758 17.8531 5.65913 19.3165C6.94246 20.7799 8.59246 21.6742 10.6091 21.9995V24.6011ZM13.3591 24.6011V21.9995C15.3529 21.6526 16.9972 20.7528 18.2919 19.3003C19.5867 17.8477 20.2341 16.1675 20.2341 14.2596C20.2341 12.0916 19.432 10.2488 17.8279 8.73116C16.2237 7.21354 14.2758 6.45473 11.9841 6.45473H11.881L13.3935 7.88563L11.4685 9.70677L6.65601 5.15392L11.4685 0.601074L13.3935 2.42221L11.881 3.85311H11.9841C15.055 3.85311 17.656 4.86124 19.7873 6.8775C21.9185 8.89376 22.9841 11.3545 22.9841 14.2596C22.9841 16.8829 22.0732 19.1756 20.2513 21.1377C18.4294 23.0997 16.132 24.2542 13.3591 24.6011Z" fill="url(#paint0_linear_26_716)"/>
<defs>
<linearGradient id="paint0_linear_26_716" x1="0.984131" y1="12.6011" x2="22.9841" y2="12.6011" gradientUnits="userSpaceOnUse">
<stop stop-color="#60C6F2"/>
<stop offset="1" stop-color="#153D8B"/>
</linearGradient>
</defs>
</svg>
