<svg width="51" height="45" viewBox="0 0 51 45" fill="none" xmlns="http://www.w3.org/2000/svg">
<path id="Vector" d="M10.5 44.1885C7.75 44.1885 5.39583 43.2311 3.4375 41.3163C1.47917 39.4014 0.5 37.0996 0.5 34.4107C0.5 31.7218 1.47917 29.42 3.4375 27.5051C5.39583 25.5903 7.75 24.6329 10.5 24.6329C13.25 24.6329 15.6042 25.5903 17.5625 27.5051C19.5208 29.42 20.5 31.7218 20.5 34.4107C20.5 37.0996 19.5208 39.4014 17.5625 41.3163C15.6042 43.2311 13.25 44.1885 10.5 44.1885ZM40.5 44.1885C37.75 44.1885 35.3958 43.2311 33.4375 41.3163C31.4792 39.4014 30.5 37.0996 30.5 34.4107C30.5 31.7218 31.4792 29.42 33.4375 27.5051C35.3958 25.5903 37.75 24.6329 40.5 24.6329C43.25 24.6329 45.6042 25.5903 47.5625 27.5051C49.5208 29.42 50.5 31.7218 50.5 34.4107C50.5 37.0996 49.5208 39.4014 47.5625 41.3163C45.6042 43.2311 43.25 44.1885 40.5 44.1885ZM10.5 39.2996C11.875 39.2996 13.0521 38.8209 14.0312 37.8635C15.0104 36.9061 15.5 35.7551 15.5 34.4107C15.5 33.0663 15.0104 31.9153 14.0312 30.9579C13.0521 30.0005 11.875 29.5218 10.5 29.5218C9.125 29.5218 7.94792 30.0005 6.96875 30.9579C5.98958 31.9153 5.5 33.0663 5.5 34.4107C5.5 35.7551 5.98958 36.9061 6.96875 37.8635C7.94792 38.8209 9.125 39.2996 10.5 39.2996ZM40.5 39.2996C41.875 39.2996 43.0521 38.8209 44.0312 37.8635C45.0104 36.9061 45.5 35.7551 45.5 34.4107C45.5 33.0663 45.0104 31.9153 44.0312 30.9579C43.0521 30.0005 41.875 29.5218 40.5 29.5218C39.125 29.5218 37.9479 30.0005 36.9688 30.9579C35.9896 31.9153 35.5 33.0663 35.5 34.4107C35.5 35.7551 35.9896 36.9061 36.9688 37.8635C37.9479 38.8209 39.125 39.2996 40.5 39.2996ZM25.5 19.744C22.75 19.744 20.3958 18.7866 18.4375 16.8718C16.4792 14.957 15.5 12.6551 15.5 9.96625C15.5 7.27737 16.4792 4.97551 18.4375 3.0607C20.3958 1.14588 22.75 0.188477 25.5 0.188477C28.25 0.188477 30.6042 1.14588 32.5625 3.0607C34.5208 4.97551 35.5 7.27737 35.5 9.96625C35.5 12.6551 34.5208 14.957 32.5625 16.8718C30.6042 18.7866 28.25 19.744 25.5 19.744ZM25.5 14.8551C26.875 14.8551 28.0521 14.3764 29.0312 13.419C30.0104 12.4616 30.5 11.3107 30.5 9.96625C30.5 8.62181 30.0104 7.47088 29.0312 6.51348C28.0521 5.55607 26.875 5.07737 25.5 5.07737C24.125 5.07737 22.9479 5.55607 21.9688 6.51348C20.9896 7.47088 20.5 8.62181 20.5 9.96625C20.5 11.3107 20.9896 12.4616 21.9688 13.419C22.9479 14.3764 24.125 14.8551 25.5 14.8551Z" fill="url(#paint0_linear_1_121)"/>
<defs>
<linearGradient id="paint0_linear_1_121" x1="0.5" y1="22.1885" x2="50.5" y2="22.1885" gradientUnits="userSpaceOnUse">
<stop stop-color="#60C6F2"/>
<stop offset="1" stop-color="#153D8B"/>
</linearGradient>
</defs>
</svg>
