<svg width="51" height="45" viewBox="0 0 51 45" fill="none" xmlns="http://www.w3.org/2000/svg">
<path id="Vector" d="M5.5 9.96625H45.5V5.07737H5.5V9.96625ZM0.5 5.07737C0.5 3.73292 0.989583 2.582 1.96875 1.62459C2.94792 0.66718 4.125 0.188477 5.5 0.188477H45.5C46.875 0.188477 48.0521 0.66718 49.0312 1.62459C50.0104 2.582 50.5 3.73292 50.5 5.07737V19.744H5.5V34.4107H15.75V39.2996H5.5C4.125 39.2996 2.94792 38.8209 1.96875 37.8635C0.989583 36.9061 0.5 35.7551 0.5 34.4107V5.07737ZM32.875 44.1885L22.25 33.7996L25.75 30.3774L32.875 37.2218L47 23.4107L50.5 26.9551L32.875 44.1885ZM5.5 5.07737V34.4107V23.4107V30.3163V5.07737Z" fill="url(#paint0_linear_1_93)"/>
<defs>
<linearGradient id="paint0_linear_1_93" x1="0.5" y1="22.1885" x2="50.5" y2="22.1885" gradientUnits="userSpaceOnUse">
<stop stop-color="#60C6F2"/>
<stop offset="1" stop-color="#153D8B"/>
</linearGradient>
</defs>
</svg>
