<svg width="47" height="45" viewBox="0 0 47 45" fill="none" xmlns="http://www.w3.org/2000/svg">
<path id="Vector" d="M41.1591 44.1885L27.6132 30.8237L32.8089 25.6975L46.3548 39.0623L41.1591 44.1885ZM7.01608 44.1885L1.8204 39.0623L18.8919 22.219L14.6859 18.0692L12.954 19.7779L9.79948 16.6656V21.6698L8.06758 23.3785L0.583328 15.9943L2.31522 14.2856H7.3872L4.29453 11.2342L13.0777 2.5685C13.9024 1.75482 14.789 1.1649 15.7374 0.79874C16.6858 0.432582 17.6549 0.249503 18.6445 0.249503C19.6342 0.249503 20.6032 0.432582 21.5516 0.79874C22.5 1.1649 23.3866 1.75482 24.2113 2.5685L18.5208 8.18293L21.6135 11.2342L19.8816 12.943L24.0876 17.0928L29.6544 11.6004C29.4895 11.1529 29.3554 10.685 29.2524 10.1968C29.1493 9.70859 29.0977 9.22038 29.0977 8.73217C29.0977 6.3318 29.9327 4.30776 31.6028 2.66004C33.2728 1.01233 35.3243 0.188477 37.7572 0.188477C38.3757 0.188477 38.9633 0.249503 39.52 0.371556C40.0767 0.493608 40.6437 0.676687 41.221 0.920793L35.0975 6.9624L39.5509 11.3563L45.6744 5.31469C45.9631 5.88427 46.1589 6.44368 46.262 6.99291C46.3651 7.54215 46.4167 8.1219 46.4167 8.73217C46.4167 11.1325 45.5816 13.1566 43.9116 14.8043C42.2416 16.452 40.1901 17.2759 37.7572 17.2759C37.2624 17.2759 36.7675 17.2352 36.2727 17.1538C35.7779 17.0724 35.3037 16.93 34.8501 16.7266L7.01608 44.1885Z" fill="url(#paint0_linear_1_132)"/>
<defs>
<linearGradient id="paint0_linear_1_132" x1="0.583328" y1="22.1885" x2="46.4167" y2="22.1885" gradientUnits="userSpaceOnUse">
<stop stop-color="#60C6F2"/>
<stop offset="1" stop-color="#153D8B"/>
</linearGradient>
</defs>
</svg>
