<svg width="45" height="45" viewBox="0 0 45 45" fill="none" xmlns="http://www.w3.org/2000/svg">
<path id="Vector" d="M26.9 28.7885C27.5233 28.7885 28.0642 28.5593 28.5225 28.101C28.9808 27.6426 29.21 27.1018 29.21 26.4785C29.21 25.8551 28.9808 25.3143 28.5225 24.856C28.0642 24.3976 27.5233 24.1685 26.9 24.1685C26.2767 24.1685 25.7358 24.3976 25.2775 24.856C24.8192 25.3143 24.59 25.8551 24.59 26.4785C24.59 27.1018 24.8192 27.6426 25.2775 28.101C25.7358 28.5593 26.2767 28.7885 26.9 28.7885ZM25.25 21.7485H28.55C28.55 20.6851 28.66 19.906 28.88 19.411C29.1 18.916 29.6133 18.2651 30.42 17.4585C31.52 16.3585 32.2533 15.4693 32.62 14.791C32.9867 14.1126 33.17 13.3151 33.17 12.3985C33.17 10.7485 32.5925 9.40098 31.4375 8.35598C30.2825 7.31098 28.77 6.78848 26.9 6.78848C25.3967 6.78848 24.0858 7.21014 22.9675 8.05348C21.8492 8.89681 21.07 10.0151 20.63 11.4085L23.6 12.6185C23.93 11.7018 24.3792 11.0143 24.9475 10.556C25.5158 10.0976 26.1667 9.86848 26.9 9.86848C27.78 9.86848 28.495 10.116 29.045 10.611C29.595 11.106 29.87 11.7751 29.87 12.6185C29.87 13.1318 29.7233 13.6176 29.43 14.076C29.1367 14.5343 28.6233 15.1118 27.89 15.8085C26.68 16.8718 25.9375 17.706 25.6625 18.311C25.3875 18.916 25.25 20.0618 25.25 21.7485ZM13.7 35.3885C12.49 35.3885 11.4542 34.9576 10.5925 34.096C9.73083 33.2343 9.3 32.1985 9.3 30.9885V4.58848C9.3 3.37848 9.73083 2.34264 10.5925 1.48098C11.4542 0.61931 12.49 0.188477 13.7 0.188477H40.1C41.31 0.188477 42.3458 0.61931 43.2075 1.48098C44.0692 2.34264 44.5 3.37848 44.5 4.58848V30.9885C44.5 32.1985 44.0692 33.2343 43.2075 34.096C42.3458 34.9576 41.31 35.3885 40.1 35.3885H13.7ZM13.7 30.9885H40.1V4.58848H13.7V30.9885ZM4.9 44.1885C3.69 44.1885 2.65417 43.7576 1.7925 42.896C0.930833 42.0343 0.5 40.9985 0.5 39.7885V8.98848H4.9V39.7885H35.7V44.1885H4.9Z" fill="url(#paint0_linear_1_127)"/>
<defs>
<linearGradient id="paint0_linear_1_127" x1="0.5" y1="22.1885" x2="44.5" y2="22.1885" gradientUnits="userSpaceOnUse">
<stop stop-color="#60C6F2"/>
<stop offset="1" stop-color="#153D8B"/>
</linearGradient>
</defs>
</svg>
