<svg width="45" height="45" viewBox="0 0 45 45" fill="none" xmlns="http://www.w3.org/2000/svg">
<path id="Vector" d="M21.18 37.5885L30.75 18.8885H24.15V6.78848L14.25 25.4885H21.18V37.5885ZM22.5 44.1885C19.4567 44.1885 16.5967 43.611 13.92 42.456C11.2433 41.301 8.915 39.7335 6.935 37.7535C4.955 35.7735 3.3875 33.4451 2.2325 30.7685C1.0775 28.0918 0.5 25.2318 0.5 22.1885C0.5 19.1451 1.0775 16.2851 2.2325 13.6085C3.3875 10.9318 4.955 8.60348 6.935 6.62348C8.915 4.64348 11.2433 3.07598 13.92 1.92098C16.5967 0.765977 19.4567 0.188477 22.5 0.188477C25.5433 0.188477 28.4033 0.765977 31.08 1.92098C33.7567 3.07598 36.085 4.64348 38.065 6.62348C40.045 8.60348 41.6125 10.9318 42.7675 13.6085C43.9225 16.2851 44.5 19.1451 44.5 22.1885C44.5 25.2318 43.9225 28.0918 42.7675 30.7685C41.6125 33.4451 40.045 35.7735 38.065 37.7535C36.085 39.7335 33.7567 41.301 31.08 42.456C28.4033 43.611 25.5433 44.1885 22.5 44.1885ZM22.5 39.7885C27.4133 39.7885 31.575 38.0835 34.985 34.6735C38.395 31.2635 40.1 27.1018 40.1 22.1885C40.1 17.2751 38.395 13.1135 34.985 9.70348C31.575 6.29348 27.4133 4.58848 22.5 4.58848C17.5867 4.58848 13.425 6.29348 10.015 9.70348C6.605 13.1135 4.9 17.2751 4.9 22.1885C4.9 27.1018 6.605 31.2635 10.015 34.6735C13.425 38.0835 17.5867 39.7885 22.5 39.7885Z" fill="url(#paint0_linear_1_105)"/>
<defs>
<linearGradient id="paint0_linear_1_105" x1="0.5" y1="22.1885" x2="44.5" y2="22.1885" gradientUnits="userSpaceOnUse">
<stop stop-color="#60C6F2"/>
<stop offset="1" stop-color="#153D8B"/>
</linearGradient>
</defs>
</svg>
