<svg width="45" height="45" viewBox="0 0 45 45" fill="none" xmlns="http://www.w3.org/2000/svg">
<path id="Vector" d="M22.5 44.1885C20.08 44.1885 17.7425 43.8126 15.4875 43.061C13.2325 42.3093 11.17 41.2185 9.3 39.7885L12.49 36.5985C14.03 37.6618 15.6433 38.4593 17.33 38.991C19.0167 39.5226 20.74 39.7885 22.5 39.7885C27.3767 39.7885 31.5292 38.0743 34.9575 34.646C38.3858 31.2176 40.1 27.0651 40.1 22.1885C40.1 17.3118 38.3858 13.1593 34.9575 9.73098C31.5292 6.30264 27.3767 4.58848 22.5 4.58848C17.6233 4.58848 13.4708 6.30264 10.0425 9.73098C6.61417 13.1593 4.9 17.3118 4.9 22.1885H0.5C0.5 19.1451 1.0775 16.2851 2.2325 13.6085C3.3875 10.9318 4.955 8.60348 6.935 6.62348C8.915 4.64348 11.2433 3.07598 13.92 1.92098C16.5967 0.765977 19.4567 0.188477 22.5 0.188477C25.5433 0.188477 28.3942 0.765977 31.0525 1.92098C33.7108 3.07598 36.0392 4.65264 38.0375 6.65098C40.0358 8.64931 41.6125 10.9776 42.7675 13.636C43.9225 16.2943 44.5 19.1451 44.5 22.1885C44.5 25.1951 43.9225 28.0368 42.7675 30.7135C41.6125 33.3901 40.0358 35.7276 38.0375 37.726C36.0392 39.7243 33.7108 41.301 31.0525 42.456C28.3942 43.611 25.5433 44.1885 22.5 44.1885ZM4.845 35.2235L13.81 26.2585L20.41 31.7585L31.3 20.8685V26.5885H35.7V13.3885H22.5V17.7885H28.22L20.19 25.8185L13.59 20.3185L2.535 31.3735C2.93833 32.2168 3.29583 32.9043 3.6075 33.436C3.91917 33.9676 4.33167 34.5635 4.845 35.2235Z" fill="url(#paint0_linear_1_149)"/>
<defs>
<linearGradient id="paint0_linear_1_149" x1="0.5" y1="22.1885" x2="44.5" y2="22.1885" gradientUnits="userSpaceOnUse">
<stop stop-color="#60C6F2"/>
<stop offset="1" stop-color="#153D8B"/>
</linearGradient>
</defs>
</svg>
