<svg width="41" height="45" viewBox="0 0 41 45" fill="none" xmlns="http://www.w3.org/2000/svg">
<path id="Vector" d="M17.9537 44.1885C12.8187 43.5923 8.56425 41.4956 5.1904 37.8985C1.81656 34.3014 0.129639 30.0783 0.129639 25.2291C0.129639 22.6058 0.681336 20.0918 1.78473 17.6871C2.88813 15.2824 4.45834 13.1858 6.49538 11.3971L10.1239 14.7955C8.5112 16.1469 7.2911 17.7169 6.46355 19.5056C5.636 21.2942 5.22223 23.202 5.22223 25.2291C5.22223 28.7269 6.4105 31.8172 8.78705 34.5001C11.1636 37.1831 14.2191 38.8226 17.9537 39.4188V44.1885ZM23.0463 44.1885V39.4188C26.7384 38.7829 29.7834 37.1334 32.1811 34.4703C34.5789 31.8073 35.7778 28.7269 35.7778 25.2291C35.7778 21.2544 34.2924 17.8759 31.3218 15.0936C28.3511 12.3113 24.7438 10.9202 20.5 10.9202H20.309L23.11 13.5435L19.5451 16.8822L10.6331 8.53536L19.5451 0.188477L23.11 3.52723L20.309 6.15054H20.5C26.1867 6.15054 31.0035 7.99877 34.9502 11.6953C38.897 15.3917 40.8704 19.903 40.8704 25.2291C40.8704 30.0385 39.1835 34.2418 35.8096 37.8389C32.4358 41.436 28.1813 43.5525 23.0463 44.1885Z" fill="url(#paint0_linear_1_111)"/>
<defs>
<linearGradient id="paint0_linear_1_111" x1="0.129639" y1="22.1885" x2="40.8704" y2="22.1885" gradientUnits="userSpaceOnUse">
<stop stop-color="#60C6F2"/>
<stop offset="1" stop-color="#153D8B"/>
</linearGradient>
</defs>
</svg>
