<svg width="45" height="45" viewBox="0 0 45 45" fill="none" xmlns="http://www.w3.org/2000/svg">
<path id="Vector" d="M22.5 44.1885C18.7667 44.1885 15.3333 43.3385 12.2 41.6385C9.06667 39.9385 6.5 37.6718 4.5 34.8385V40.1885H0.5V28.1885H12.5V32.1885H7.55C9.15 34.5885 11.2583 36.5218 13.875 37.9885C16.4917 39.4551 19.3667 40.1885 22.5 40.1885C25 40.1885 27.3417 39.7135 29.525 38.7635C31.7083 37.8135 33.6083 36.5301 35.225 34.9135C36.8417 33.2968 38.125 31.3968 39.075 29.2135C40.025 27.0301 40.5 24.6885 40.5 22.1885H44.5C44.5 25.2218 43.925 28.0718 42.775 30.7385C41.625 33.4051 40.05 35.7385 38.05 37.7385C36.05 39.7385 33.7167 41.3135 31.05 42.4635C28.3833 43.6135 25.5333 44.1885 22.5 44.1885ZM20.7 36.1885V33.5885C19.1333 33.2218 17.8583 32.5468 16.875 31.5635C15.8917 30.5801 15.1667 29.2885 14.7 27.6885L18 26.3885C18.4 27.7551 19.025 28.7801 19.875 29.4635C20.725 30.1468 21.7 30.4885 22.8 30.4885C23.9 30.4885 24.8417 30.2301 25.625 29.7135C26.4083 29.1968 26.8 28.3885 26.8 27.2885C26.8 26.3218 26.3917 25.5385 25.575 24.9385C24.7583 24.3385 23.3 23.6551 21.2 22.8885C19.2333 22.1885 17.7917 21.3551 16.875 20.3885C15.9583 19.4218 15.5 18.1551 15.5 16.5885C15.5 15.2218 15.975 13.9801 16.925 12.8635C17.875 11.7468 19.1667 11.0218 20.8 10.6885V8.18848H24.3V10.6885C25.5 10.7885 26.5917 11.2718 27.575 12.1385C28.5583 13.0051 29.2333 14.0218 29.6 15.1885L26.4 16.4885C26.1333 15.7218 25.7 15.0801 25.1 14.5635C24.5 14.0468 23.6667 13.7885 22.6 13.7885C21.4333 13.7885 20.5417 14.0385 19.925 14.5385C19.3083 15.0385 19 15.7218 19 16.5885C19 17.4551 19.3833 18.1385 20.15 18.6385C20.9167 19.1385 22.3 19.7218 24.3 20.3885C26.7 21.2551 28.3 22.2718 29.1 23.4385C29.9 24.6051 30.3 25.8885 30.3 27.2885C30.3 28.2551 30.1333 29.1051 29.8 29.8385C29.4667 30.5718 29.025 31.1968 28.475 31.7135C27.925 32.2301 27.2833 32.6468 26.55 32.9635C25.8167 33.2801 25.0333 33.5218 24.2 33.6885V36.1885H20.7ZM0.5 22.1885C0.5 19.1551 1.075 16.3051 2.225 13.6385C3.375 10.9718 4.95 8.63848 6.95 6.63848C8.95 4.63848 11.2833 3.06348 13.95 1.91348C16.6167 0.763477 19.4667 0.188477 22.5 0.188477C26.2333 0.188477 29.6667 1.03848 32.8 2.73848C35.9333 4.43848 38.5 6.70514 40.5 9.53848V4.18848H44.5V16.1885H32.5V12.1885H37.45C35.85 9.78848 33.7417 7.85514 31.125 6.38848C28.5083 4.92181 25.6333 4.18848 22.5 4.18848C20 4.18848 17.6583 4.66348 15.475 5.61348C13.2917 6.56348 11.3917 7.84681 9.775 9.46348C8.15833 11.0801 6.875 12.9801 5.925 15.1635C4.975 17.3468 4.5 19.6885 4.5 22.1885H0.5Z" fill="url(#paint0_linear_1_116)"/>
<defs>
<linearGradient id="paint0_linear_1_116" x1="0.5" y1="22.1885" x2="44.5" y2="22.1885" gradientUnits="userSpaceOnUse">
<stop stop-color="#60C6F2"/>
<stop offset="1" stop-color="#153D8B"/>
</linearGradient>
</defs>
</svg>
