<svg width="225" height="55" viewBox="0 0 225 55" fill="none" xmlns="http://www.w3.org/2000/svg">
<g clip-path="url(#clip0_250_929)">
<path d="M22.9547 16.7346L22.923 16.7664C21.3363 19.8022 22.0873 23.0179 23.9596 24.9642C24.6366 25.6729 25.3241 27.1961 25.377 29.0684C25.3982 29.8723 25.2184 30.6657 24.9116 31.4167C24.4568 32.538 23.6846 33.5217 22.7114 34.2199C22.2248 34.5689 21.6854 34.8439 21.093 35.0343C20.5006 35.2247 19.8554 35.3305 19.1361 35.3305C18.1841 35.3305 17.3484 35.1401 16.608 34.8122C16.0474 34.5689 15.5396 34.241 15.0848 33.8496C14.4078 33.2573 13.7731 32.5485 13.4769 31.6917C11.8268 26.9634 16.6291 21.738 18.8928 17.6126C21.0507 13.6671 21.5161 11.488 21.7277 9.61574C21.7277 9.59458 20.9132 8.3464 20.9132 8.31466C20.892 4.72877 17.4331 4.30565 14.2386 5.93464L13.1702 6.47411C13.7731 7.66941 14.0799 8.95991 14.0799 10.2504C14.0799 11.9323 13.5721 13.6036 12.5672 15.0316L8.12454 21.3783C7.29947 22.563 6.67538 23.8324 6.27342 25.1335C5.87146 26.4345 5.67048 27.7568 5.68106 29.0579C5.68106 30.8138 6.03013 32.5274 6.6648 34.1035C7.62739 36.4729 9.2458 38.5674 11.3825 40.0906C12.4509 40.8522 13.6568 41.4657 14.9684 41.8888C16.2695 42.3119 17.6764 42.534 19.1361 42.534C21.0824 42.534 22.923 42.1321 24.5731 41.4022C27.0483 40.3127 29.0476 38.525 30.4333 36.3777C31.819 34.2304 32.6017 31.6917 32.6017 29.0579C32.6017 18.6175 22.9547 16.7346 22.9547 16.7346Z" fill="url(#paint0_linear_250_929)"/>
<mask id="mask0_250_929" style="mask-type:luminance" maskUnits="userSpaceOnUse" x="5" y="5" width="28" height="38">
<path d="M22.9547 16.7346L22.923 16.7664C21.3363 19.8022 22.0873 23.0179 23.9596 24.9642C24.6366 25.6729 25.3241 27.1961 25.377 29.0684C25.3982 29.8723 25.2184 30.6657 24.9116 31.4167C24.4568 32.538 23.6846 33.5217 22.7114 34.2199C22.2248 34.5689 21.6854 34.8439 21.093 35.0343C20.5006 35.2247 19.8554 35.3305 19.1361 35.3305C18.1841 35.3305 17.3484 35.1401 16.608 34.8122C16.0474 34.5689 15.5396 34.241 15.0848 33.8496C14.4078 33.2573 13.7731 32.5485 13.4769 31.6917C11.8268 26.9634 16.6291 21.738 18.8928 17.6126C21.0507 13.6671 21.5161 11.488 21.7277 9.61574C21.7277 9.59458 20.9132 8.3464 20.9132 8.31466C20.892 4.72877 17.4331 4.30565 14.2386 5.93464L13.1702 6.47411C13.7731 7.66941 14.0799 8.95991 14.0799 10.2504C14.0799 11.9323 13.5721 13.6036 12.5672 15.0316L8.12454 21.3783C7.29947 22.563 6.67538 23.8324 6.27342 25.1335C5.87146 26.4345 5.67048 27.7568 5.68106 29.0579C5.68106 30.8138 6.03013 32.5274 6.6648 34.1035C7.62739 36.4729 9.2458 38.5674 11.3825 40.0906C12.4509 40.8522 13.6568 41.4657 14.9684 41.8888C16.2695 42.3119 17.6764 42.534 19.1361 42.534C21.0824 42.534 22.923 42.1321 24.5731 41.4022C27.0483 40.3127 29.0476 38.525 30.4333 36.3777C31.819 34.2304 32.6017 31.6917 32.6017 29.0579C32.6017 18.6175 22.9547 16.7346 22.9547 16.7346Z" fill="white"/>
</mask>
<g mask="url(#mask0_250_929)">
<path d="M16.5336 40.831C30.3032 40.831 41.4656 29.6686 41.4656 15.899C41.4656 2.12941 30.3032 -9.03304 16.5336 -9.03304C2.76401 -9.03304 -8.39844 2.12941 -8.39844 15.899C-8.39844 29.6686 2.76401 40.831 16.5336 40.831Z" fill="url(#paint1_linear_250_929)"/>
</g>
<mask id="mask1_250_929" style="mask-type:luminance" maskUnits="userSpaceOnUse" x="1" y="0" width="36" height="49">
<path d="M24.0233 15.2749L23.9809 15.3172C21.3471 18.078 21.4846 22.563 24.4464 24.9748C25.8955 26.1489 26.9956 28.0529 27.1226 31.0994C27.1649 32.1254 26.9216 33.1515 26.5302 34.1035C25.9484 35.5421 24.9541 36.8114 23.7059 37.6894C23.0818 38.1337 22.3837 38.4827 21.6221 38.726C20.8605 38.9693 20.0354 39.1068 19.1151 39.1068C17.8881 39.1068 16.8197 38.8635 15.8677 38.4404C15.1484 38.1231 14.5032 37.7105 13.9214 37.2028C13.054 36.4518 12.3453 35.4998 11.8587 34.442C11.3721 33.3842 11.1183 32.2312 11.1183 31.0782C11.1183 30.3166 11.2346 29.555 11.4673 28.804C11.7 28.0529 12.0597 27.3019 12.5886 26.5509L18.2795 18.4165C20.6701 14.9999 21.8865 11.0014 21.8865 6.98185C21.8865 6.95011 21.8865 6.91838 21.8865 6.88665C21.8654 2.28528 16.9361 -0.644792 12.8425 1.43905L11.4779 2.13719C12.2607 3.67098 12.6415 5.32112 12.6415 6.98185C12.6415 9.13973 11.9962 11.2765 10.7057 13.1064L5.01484 21.2408C3.95705 22.7534 3.16371 24.3824 2.6454 26.0432C2.12708 27.7039 1.88379 29.4069 1.88379 31.0782C1.88379 33.3313 2.32806 35.5209 3.14256 37.5519C4.36959 40.5877 6.44285 43.2745 9.19309 45.2314C10.5682 46.2046 12.1126 46.9873 13.7839 47.5268C15.4552 48.0663 17.2534 48.3519 19.1257 48.3519C21.6115 48.3519 23.9809 47.8336 26.0859 46.9027C29.2487 45.5064 31.8297 43.2216 33.5962 40.4608C35.3733 37.7 36.3676 34.4526 36.3676 31.0782C36.3888 17.6866 24.0233 15.2749 24.0233 15.2749Z" fill="white"/>
</mask>
<g mask="url(#mask1_250_929)">
<path d="M30.4334 57.5758C48.0762 57.5758 62.3786 43.2734 62.3786 25.6306C62.3786 7.98781 48.0762 -6.31452 30.4334 -6.31452C12.7906 -6.31452 -1.51172 7.98781 -1.51172 25.6306C-1.51172 43.2734 12.7906 57.5758 30.4334 57.5758Z" fill="url(#paint2_linear_250_929)"/>
<path d="M16.5452 45.3266C7.57513 47.4739 -1.43721 41.9417 -3.58452 32.9822C-5.73182 24.0228 -4.29323 3.44884 4.67679 1.30154C13.6468 -0.845769 26.7422 16.2269 28.9001 25.1969C31.0368 34.167 25.5152 43.1793 16.5452 45.3266Z" fill="url(#paint3_linear_250_929)"/>
<path d="M1.33429 30.2426C14.1691 30.2426 24.5739 19.8379 24.5739 7.00301C24.5739 -5.83185 14.1691 -16.2366 1.33429 -16.2366C-11.5006 -16.2366 -21.9053 -5.83185 -21.9053 7.00301C-21.9053 19.8379 -11.5006 30.2426 1.33429 30.2426Z" fill="url(#paint4_linear_250_929)"/>
<path d="M-5.04429 33.2678C5.9737 33.2678 14.9056 24.336 14.9056 13.318C14.9056 2.29999 5.9737 -6.63186 -5.04429 -6.63186C-16.0623 -6.63186 -24.9941 2.29999 -24.9941 13.318C-24.9941 24.336 -16.0623 33.2678 -5.04429 33.2678Z" fill="url(#paint5_linear_250_929)"/>
</g>
</g>
<path d="M61.5744 23.156C60.7275 22.5837 59.7863 22.1654 58.794 21.9203C57.7253 21.6517 56.6273 21.5178 55.5254 21.5218C54.0561 21.4931 52.5947 21.7437 51.2189 22.2601C50.0528 22.7032 49.0132 23.4256 48.1914 24.364C47.4015 25.2891 46.8603 26.4001 46.6189 27.5923L51.8708 28.0187C52.0692 27.3384 52.4916 26.7451 53.0694 26.335C53.7866 25.8529 54.6408 25.6165 55.5038 25.6615C56.4698 25.6615 57.2174 25.8922 57.7467 26.3535C58.0156 26.601 58.2263 26.905 58.3636 27.2437C58.5009 27.5824 58.5613 27.9473 58.5406 28.3121V28.3894C58.551 28.5824 58.5109 28.7749 58.4242 28.9477C58.3375 29.1205 58.2073 29.2677 58.0463 29.3749C57.5587 29.6504 57.0189 29.8209 56.4615 29.8753C55.7355 29.9866 54.7747 30.104 53.5884 30.2275C52.6106 30.3194 51.6416 30.4888 50.6906 30.7342C49.8196 30.9524 48.99 31.3113 48.2346 31.7969C47.5214 32.263 46.9362 32.9002 46.5324 33.6505C46.092 34.5379 45.8796 35.5211 45.9145 36.5112C45.8644 37.7001 46.1676 38.8772 46.7857 39.8941C47.3748 40.7949 48.2145 41.5037 49.2016 41.933C50.3024 42.4065 51.4913 42.6403 52.6894 42.6189C53.5978 42.6349 54.5024 42.497 55.3648 42.2111C56.0935 41.9676 56.7674 41.5835 57.3482 41.0804C57.8894 40.6067 58.3369 40.0356 58.6673 39.3967H58.8249V42.2327H64.2034V28.4419C64.2332 27.3543 63.9911 26.2765 63.499 25.3062C63.041 24.4408 62.3808 23.6989 61.5744 23.1437M58.5715 34.911C58.5829 35.5939 58.3939 36.2652 58.0278 36.8418C57.6558 37.418 57.1363 37.8841 56.5233 38.1918C55.8387 38.536 55.0805 38.7078 54.3144 38.6923C53.546 38.7233 52.7879 38.5067 52.1519 38.0744C51.8738 37.8754 51.6504 37.6093 51.5024 37.301C51.3545 36.9926 51.2867 36.6519 51.3054 36.3104C51.2888 35.8307 51.4347 35.3593 51.7194 34.9728C52.0238 34.5901 52.4233 34.294 52.8779 34.1139C53.4363 33.8843 54.0219 33.7275 54.6203 33.6474L55.6583 33.496C56.0414 33.4373 56.4214 33.3694 56.8044 33.2952C57.1875 33.2211 57.5304 33.1346 57.8363 33.0419C58.0902 32.9724 58.3334 32.8685 58.5592 32.733L58.5715 34.911ZM189.232 25.2815C190.184 24.6376 191.314 24.3081 192.463 24.3393C193.847 24.3393 194.949 24.7017 195.769 25.4267C196.539 26.0697 197.095 26.9317 197.363 27.8982H200.496C200.342 26.679 199.87 25.5218 199.127 24.5431C198.379 23.5776 197.405 22.8106 196.291 22.3096C195.07 21.7616 193.743 21.4885 192.405 21.5094C190.693 21.4717 189.009 21.9415 187.564 22.8595C186.16 23.7857 185.041 25.0842 184.332 26.6099C183.58 28.336 183.188 30.198 183.183 32.081C183.178 33.9641 183.558 35.8282 184.301 37.5585C185.374 39.7024 187.238 41.3451 189.5 42.1391C191.762 42.933 194.244 42.8159 196.421 41.8125C197.507 41.2966 198.448 40.518 199.158 39.547C199.868 38.5761 200.324 37.4435 200.486 36.2517H197.348C197.171 36.9584 196.834 37.6148 196.362 38.1702C195.9 38.7067 195.321 39.1295 194.669 39.4059C193.966 39.6978 193.21 39.8429 192.448 39.8323C191.293 39.8581 190.158 39.5186 189.207 38.8622C188.253 38.1711 187.514 37.2243 187.076 36.1313C186.549 34.8204 186.293 33.4163 186.325 32.0039C186.294 30.6194 186.554 29.2438 187.088 27.9661C187.539 26.8919 188.282 25.9653 189.232 25.2908M79.233 21.4909C78.1406 21.4743 77.0731 21.8185 76.1962 22.4702C75.2684 23.1961 74.6086 24.2102 74.321 25.3526H74.1078V21.7844H68.6088V42.2327H74.2808V30.6631C74.2654 29.8892 74.4608 29.1256 74.8462 28.4542C75.2152 27.8236 75.7492 27.3055 76.3908 26.9559C77.0763 26.5894 77.8441 26.4044 78.6213 26.4184C79.0533 26.4214 79.4847 26.4524 79.9127 26.5111C80.2852 26.5536 80.654 26.6248 81.0156 26.7242V21.6917C80.731 21.6232 80.4419 21.5747 80.1506 21.5465C79.8429 21.5104 79.5335 21.4919 79.2238 21.4909M220.586 24.8892C220.059 23.8059 219.203 22.9162 218.142 22.3466C217.009 21.7728 215.751 21.4873 214.481 21.5156C212.875 21.5156 211.59 21.8245 210.629 22.4424C209.677 23.053 208.925 23.9295 208.466 24.9633H208.219V14.9538H205.068V42.2173H208.219V29.931C208.188 28.8762 208.429 27.8312 208.92 26.8972C209.358 26.0884 210.024 25.4265 210.836 24.9942C211.687 24.5486 212.637 24.3234 213.598 24.3393C215.08 24.3393 216.241 24.7862 217.079 25.68C217.917 26.5739 218.337 27.8312 218.337 29.4521V42.2327H221.478V29.2389C221.478 27.4811 221.188 26.0353 220.607 24.8922M141.258 23.156C140.411 22.5834 139.47 22.1651 138.477 21.9203C137.409 21.6513 136.311 21.5174 135.209 21.5218C133.739 21.4937 132.278 21.7443 130.902 22.2601C129.737 22.7048 128.698 23.4269 127.875 24.364C127.086 25.2893 126.546 26.4003 126.305 27.5923L131.557 28.0187C131.757 27.3389 132.179 26.746 132.756 26.335C133.474 25.8524 134.329 25.6161 135.193 25.6615C136.159 25.6615 136.907 25.8922 137.436 26.3535C137.704 26.6013 137.915 26.9054 138.051 27.2441C138.188 27.5827 138.248 27.9475 138.227 28.3121V28.3894C138.238 28.5822 138.198 28.7745 138.112 28.9474C138.026 29.1202 137.896 29.2676 137.736 29.3749C137.248 29.6499 136.708 29.8203 136.151 29.8753C135.422 29.9866 134.463 30.104 133.275 30.2275C132.298 30.3193 131.33 30.4887 130.38 30.7342C129.504 30.9508 128.669 31.3098 127.909 31.7969C127.194 32.2628 126.608 32.9 126.203 33.6505C125.763 34.5379 125.551 35.5211 125.585 36.5112C125.534 37.6998 125.836 38.8769 126.454 39.8941C127.043 40.7958 127.884 41.5047 128.872 41.933C129.973 42.4067 131.162 42.6405 132.36 42.6189C133.269 42.6349 134.173 42.497 135.036 42.2111C135.764 41.9676 136.438 41.5835 137.019 41.0804C137.56 40.6075 138.007 40.0361 138.335 39.3967H138.496V42.2327H143.874V28.4419C143.905 27.3539 143.662 26.2755 143.167 25.3062C142.711 24.4403 142.052 23.6982 141.245 23.1437M138.242 34.911C138.253 35.5942 138.063 36.2654 137.696 36.8418C137.324 37.4187 136.805 37.885 136.191 38.1918C135.507 38.5364 134.748 38.7082 133.982 38.6923C133.214 38.7224 132.456 38.5059 131.82 38.0744C131.542 37.8748 131.32 37.6086 131.172 37.3003C131.025 36.992 130.958 36.6516 130.976 36.3104C130.959 35.831 131.103 35.3596 131.387 34.9728C131.692 34.5901 132.091 34.294 132.546 34.1139C133.105 33.8843 133.692 33.7275 134.291 33.6474L135.329 33.496C135.709 33.4373 136.092 33.3694 136.472 33.2952C136.852 33.2211 137.198 33.1346 137.504 33.0419C137.759 32.9724 138.003 32.8684 138.23 32.733L138.242 34.911ZM176.55 23.7615C175.738 22.9921 174.771 22.4044 173.714 22.0377C172.699 21.6883 171.633 21.5087 170.56 21.5063C168.849 21.4679 167.166 21.9378 165.722 22.8564C164.316 23.7864 163.198 25.0921 162.497 26.6254C161.701 28.3634 161.309 30.2594 161.351 32.1707C161.307 34.0683 161.699 35.9506 162.497 37.6728C163.212 39.1907 164.354 40.4672 165.784 41.3461C167.325 42.2582 169.091 42.7185 170.881 42.6745C172.158 42.6933 173.426 42.4743 174.622 42.0288C175.669 41.6324 176.617 41.0149 177.403 40.2184C178.148 39.4565 178.699 38.5276 179.012 37.5091L175.979 36.6564C175.74 37.3258 175.353 37.9329 174.848 38.4328C174.354 38.912 173.76 39.2759 173.109 39.4986C172.386 39.742 171.628 39.8611 170.866 39.8508C169.699 39.8757 168.546 39.5888 167.526 39.0198C166.554 38.4475 165.773 37.5991 165.283 36.5823C164.768 35.4891 164.496 34.2969 164.486 33.0882H179.334V31.7567C179.378 30.1173 179.12 28.4838 178.574 26.9374C178.144 25.7466 177.447 24.6699 176.538 23.7894M164.489 30.3727C164.547 29.438 164.791 28.5243 165.206 27.685C165.682 26.7135 166.406 25.8845 167.304 25.2815C168.264 24.6486 169.395 24.3252 170.545 24.3547C171.587 24.3294 172.615 24.6028 173.507 25.1425C174.343 25.6611 175.016 26.404 175.45 27.2865C175.921 28.2473 176.156 29.3062 176.136 30.3758L164.489 30.3727ZM156.967 39.4183C156.685 39.4623 156.4 39.482 156.114 39.477C155.668 39.4806 155.225 39.4064 154.804 39.2577C154.372 39.0963 154.013 38.7849 153.791 38.3803C153.53 37.9416 153.399 37.2784 153.399 36.3907V24.4474H157.764V21.7844H153.417V16.8847H150.275V21.7844H147.186V24.4474H150.275V37.228C150.235 38.2753 150.526 39.3087 151.106 40.1814C151.638 40.942 152.365 41.545 153.21 41.9269C154.028 42.3006 154.916 42.4955 155.815 42.4984C156.301 42.507 156.786 42.4646 157.263 42.3717C157.566 42.3102 157.865 42.2276 158.156 42.1246L157.517 39.304L156.985 39.4029M123.262 21.7844H117.448L113.602 28.9331L109.848 21.7844H103.979L109.848 32.007L103.778 42.2327H109.648L113.614 35.1643L117.649 42.2327H123.438L117.355 32.007L123.262 21.7844ZM98.0718 23.156C97.2251 22.5834 96.2838 22.1651 95.2914 21.9203C94.2238 21.6515 93.1268 21.5176 92.026 21.5218C90.562 21.4941 89.1061 21.7436 87.7349 22.257C86.5683 22.7009 85.5279 23.4231 84.7042 24.3609C83.9164 25.2869 83.3764 26.3977 83.1348 27.5892L88.3867 28.0156C88.585 27.3361 89.0061 26.7431 89.5823 26.3319C90.3011 25.8508 91.156 25.6146 92.0198 25.6584C92.9857 25.6584 93.7333 25.8891 94.2626 26.3504C94.531 26.5982 94.7411 26.9023 94.8779 27.241C95.0146 27.5797 95.0746 27.9444 95.0535 28.3091V28.3863C95.0645 28.5791 95.025 28.7715 94.9388 28.9443C94.8527 29.1172 94.7229 29.2645 94.5623 29.3718C94.0747 29.6473 93.5349 29.8178 92.9775 29.8723C92.2515 29.9835 91.2907 30.1009 90.1044 30.2244C89.1266 30.3163 88.1576 30.4857 87.2066 30.7311C86.3302 30.9477 85.4952 31.3067 84.7351 31.7938C84.0219 32.2599 83.4367 32.8972 83.0329 33.6474C82.5925 34.5349 82.3801 35.518 82.415 36.5081C82.3643 37.6981 82.6675 38.8764 83.2862 39.8941C83.8746 40.7955 84.7146 41.5045 85.7021 41.933C86.8028 42.4067 87.9918 42.6405 89.1899 42.6189C90.0984 42.6349 91.0029 42.497 91.8653 42.2111C92.5941 41.9676 93.2679 41.5835 93.8487 41.0804C94.3899 40.6075 94.8365 40.0361 95.1647 39.3967H95.3254V42.2327H100.71V28.4419C100.74 27.3543 100.498 26.2765 100.006 25.3062C99.5477 24.4408 98.8875 23.6989 98.0811 23.1437M95.0782 34.911C95.0882 35.5937 94.8992 36.2646 94.5345 36.8418C94.1625 37.418 93.643 37.8841 93.03 38.1918C92.3443 38.536 91.5851 38.7078 90.818 38.6923C90.0548 38.7202 89.3026 38.5037 88.6709 38.0744C88.3928 37.8754 88.1695 37.6093 88.0215 37.301C87.8735 36.9926 87.8058 36.6519 87.8245 36.3104C87.8064 35.8305 87.9524 35.3586 88.2384 34.9728C88.5415 34.59 88.94 34.2938 89.3938 34.1139C89.9533 33.8843 90.5399 33.7275 91.1393 33.6474L92.1773 33.496C92.5573 33.4373 92.9404 33.3694 93.3235 33.2952C93.7066 33.2211 94.0464 33.1346 94.3522 33.0419C94.6074 32.973 94.8517 32.869 95.0782 32.733V34.911Z" fill="white"/>
<defs>
<linearGradient id="paint0_linear_250_929" x1="5.67353" y1="23.7928" x2="32.5987" y2="23.7928" gradientUnits="userSpaceOnUse">
<stop stop-color="#5FC5F1"/>
<stop offset="0.2159" stop-color="#419ACC"/>
<stop offset="0.457" stop-color="#2571A9"/>
<stop offset="0.6766" stop-color="#115390"/>
<stop offset="0.8649" stop-color="#044180"/>
<stop offset="1" stop-color="#003B7B"/>
</linearGradient>
<linearGradient id="paint1_linear_250_929" x1="19.2993" y1="3.89846" x2="9.01594" y2="48.5879" gradientUnits="userSpaceOnUse">
<stop stop-color="#5FC5F1"/>
<stop offset="0.2087" stop-color="#419ACC"/>
<stop offset="0.4418" stop-color="#2571A9"/>
<stop offset="0.6541" stop-color="#115390"/>
<stop offset="0.8361" stop-color="#044180"/>
<stop offset="0.9667" stop-color="#003B7B"/>
</linearGradient>
<linearGradient id="paint2_linear_250_929" x1="29.6452" y1="30.4074" x2="21.8908" y2="76.6911" gradientUnits="userSpaceOnUse">
<stop stop-color="white"/>
<stop offset="0.1639" stop-color="#F7FBFD"/>
<stop offset="0.4179" stop-color="#E1EEF9"/>
<stop offset="0.7284" stop-color="#BEDBF2"/>
<stop offset="1" stop-color="#99C6EB"/>
</linearGradient>
<linearGradient id="paint3_linear_250_929" x1="9.50399" y1="24.059" x2="32.498" y2="56.4204" gradientUnits="userSpaceOnUse">
<stop stop-color="white"/>
<stop offset="0.0856791" stop-color="#F7FBFC"/>
<stop offset="0.2187" stop-color="#E1EEF5"/>
<stop offset="0.3823" stop-color="#BDDAE9"/>
<stop offset="0.5702" stop-color="#8CBFD8"/>
<stop offset="0.7787" stop-color="#4C9BC3"/>
<stop offset="1" stop-color="#0071A9"/>
</linearGradient>
<linearGradient id="paint4_linear_250_929" x1="-1.59826" y1="5.04707" x2="-29.9705" y2="-13.9292" gradientUnits="userSpaceOnUse">
<stop stop-color="white"/>
<stop offset="0.1639" stop-color="#F7FBFD"/>
<stop offset="0.4179" stop-color="#E1EEF9"/>
<stop offset="0.7284" stop-color="#BEDBF2"/>
<stop offset="1" stop-color="#99C6EB"/>
</linearGradient>
<linearGradient id="paint5_linear_250_929" x1="-2.15219" y1="12.4081" x2="25.8741" y2="3.82792" gradientUnits="userSpaceOnUse">
<stop stop-color="white"/>
<stop offset="0.0856791" stop-color="#F7FAFC"/>
<stop offset="0.2187" stop-color="#E1ECF2"/>
<stop offset="0.3823" stop-color="#BDD6E3"/>
<stop offset="0.5702" stop-color="#8CB7CF"/>
<stop offset="0.7787" stop-color="#4C90B4"/>
<stop offset="1" stop-color="#006194"/>
</linearGradient>
<clipPath id="clip0_250_929">
<rect width="35.9829" height="49.4764" fill="white" transform="translate(1.17773)"/>
</clipPath>
</defs>
</svg>
